<?xml version="1.0" encoding="UTF-8" standalone="no"?>
<!DOCTYPE svg PUBLIC "-//W3C//DTD SVG 1.1//EN"
 "http://www.w3.org/Graphics/SVG/1.1/DTD/svg11.dtd">
<!-- Generated by graphviz version 14.0.4 (20251115.1723)
 -->
<!-- Pages: 1 -->
<svg width="864pt" height="563pt"
 viewBox="0.00 0.00 864.00 563.00" xmlns="http://www.w3.org/2000/svg" xmlns:xlink="http://www.w3.org/1999/xlink">
<g id="graph0" class="graph" transform="scale(0.887064 0.887064) rotate(0) translate(4 630.29)">
<polygon fill="white" stroke="none" points="-4,4 -4,-630.29 970,-630.29 970,4 -4,4"/>
<!-- w
&#45;&#45;&#45;&#45;&#45;&#45;&#45;&#45;&#45;&#45;&#45;&#45;&#45;
tensor([[0.9755, 0.7312]])
&#45;&#45;&#45;&#45;&#45;&#45;&#45;&#45;&#45;&#45;&#45;&#45;&#45;
tensor([[0.1225, 0.1458]]) -->
<g id="node1" class="node">
<title>w
&#45;&#45;&#45;&#45;&#45;&#45;&#45;&#45;&#45;&#45;&#45;&#45;&#45;
tensor([[0.9755, 0.7312]])
&#45;&#45;&#45;&#45;&#45;&#45;&#45;&#45;&#45;&#45;&#45;&#45;&#45;
tensor([[0.1225, 0.1458]])</title>
<polygon fill="lightgrey" stroke="black" points="634,-578 462,-578 462,-506.25 634,-506.25 634,-578"/>
<text xml:space="preserve" text-anchor="middle" x="548" y="-564.5" font-family="monospace" font-size="10.00">w</text>
<text xml:space="preserve" text-anchor="middle" x="548" y="-551.75" font-family="monospace" font-size="10.00">&#45;&#45;&#45;&#45;&#45;&#45;&#45;&#45;&#45;&#45;&#45;&#45;&#45;</text>
<text xml:space="preserve" text-anchor="middle" x="548" y="-539" font-family="monospace" font-size="10.00">tensor([[0.9755, 0.7312]])</text>
<text xml:space="preserve" text-anchor="middle" x="548" y="-526.25" font-family="monospace" font-size="10.00">&#45;&#45;&#45;&#45;&#45;&#45;&#45;&#45;&#45;&#45;&#45;&#45;&#45;</text>
<text xml:space="preserve" text-anchor="middle" x="548" y="-513.5" font-family="monospace" font-size="10.00">tensor([[0.1225, 0.1458]])</text>
</g>
<!-- MatMul1 -->
<g id="node4" class="node">
<title>MatMul1</title>
<polygon fill="lightgrey" stroke="black" points="577,-457.5 519,-457.5 519,-436.75 577,-436.75 577,-457.5"/>
<text xml:space="preserve" text-anchor="middle" x="548" y="-444" font-family="monospace" font-size="10.00">MatMul1</text>
</g>
<!-- w
&#45;&#45;&#45;&#45;&#45;&#45;&#45;&#45;&#45;&#45;&#45;&#45;&#45;
tensor([[0.9755, 0.7312]])
&#45;&#45;&#45;&#45;&#45;&#45;&#45;&#45;&#45;&#45;&#45;&#45;&#45;
tensor([[0.1225, 0.1458]])&#45;&gt;MatMul1 -->
<g id="edge1" class="edge">
<title>w
&#45;&#45;&#45;&#45;&#45;&#45;&#45;&#45;&#45;&#45;&#45;&#45;&#45;
tensor([[0.9755, 0.7312]])
&#45;&#45;&#45;&#45;&#45;&#45;&#45;&#45;&#45;&#45;&#45;&#45;&#45;
tensor([[0.1225, 0.1458]])&#45;&gt;MatMul1</title>
<path fill="none" stroke="black" d="M548,-505.97C548,-493.54 548,-479.97 548,-469.1"/>
<polygon fill="black" stroke="black" points="551.5,-469.32 548,-459.32 544.5,-469.32 551.5,-469.32"/>
</g>
<!-- x
&#45;&#45;&#45;&#45;&#45;&#45;&#45;&#45;&#45;&#45;&#45;&#45;&#45;
tensor([[0.4275, 0.4451],
 &#160;&#160;&#160;&#160;&#160;&#160;&#160;[0.8319, 0.3550]])
&#45;&#45;&#45;&#45;&#45;&#45;&#45;&#45;&#45;&#45;&#45;&#45;&#45;
tensor([[0.0955, 0.1768],
 &#160;&#160;&#160;&#160;&#160;&#160;&#160;[0.0715, 0.1325]]) -->
<g id="node2" class="node">
<title>x
&#45;&#45;&#45;&#45;&#45;&#45;&#45;&#45;&#45;&#45;&#45;&#45;&#45;
tensor([[0.4275, 0.4451],
 &#160;&#160;&#160;&#160;&#160;&#160;&#160;[0.8319, 0.3550]])
&#45;&#45;&#45;&#45;&#45;&#45;&#45;&#45;&#45;&#45;&#45;&#45;&#45;
tensor([[0.0955, 0.1768],
 &#160;&#160;&#160;&#160;&#160;&#160;&#160;[0.0715, 0.1325]])</title>
<polygon fill="lightgrey" stroke="black" points="824,-590.75 652,-590.75 652,-493.5 824,-493.5 824,-590.75"/>
<text xml:space="preserve" text-anchor="middle" x="738" y="-577.25" font-family="monospace" font-size="10.00">x</text>
<text xml:space="preserve" text-anchor="middle" x="738" y="-564.5" font-family="monospace" font-size="10.00">&#45;&#45;&#45;&#45;&#45;&#45;&#45;&#45;&#45;&#45;&#45;&#45;&#45;</text>
<text xml:space="preserve" text-anchor="middle" x="738" y="-551.75" font-family="monospace" font-size="10.00">tensor([[0.4275, 0.4451],</text>
<text xml:space="preserve" text-anchor="middle" x="738" y="-539" font-family="monospace" font-size="10.00"> &#160;&#160;&#160;&#160;&#160;&#160;&#160;[0.8319, 0.3550]])</text>
<text xml:space="preserve" text-anchor="middle" x="738" y="-526.25" font-family="monospace" font-size="10.00">&#45;&#45;&#45;&#45;&#45;&#45;&#45;&#45;&#45;&#45;&#45;&#45;&#45;</text>
<text xml:space="preserve" text-anchor="middle" x="738" y="-513.5" font-family="monospace" font-size="10.00">tensor([[0.0955, 0.1768],</text>
<text xml:space="preserve" text-anchor="middle" x="738" y="-500.75" font-family="monospace" font-size="10.00"> &#160;&#160;&#160;&#160;&#160;&#160;&#160;[0.0715, 0.1325]])</text>
</g>
<!-- x
&#45;&#45;&#45;&#45;&#45;&#45;&#45;&#45;&#45;&#45;&#45;&#45;&#45;
tensor([[0.4275, 0.4451],
 &#160;&#160;&#160;&#160;&#160;&#160;&#160;[0.8319, 0.3550]])
&#45;&#45;&#45;&#45;&#45;&#45;&#45;&#45;&#45;&#45;&#45;&#45;&#45;
tensor([[0.0955, 0.1768],
 &#160;&#160;&#160;&#160;&#160;&#160;&#160;[0.0715, 0.1325]])&#45;&gt;MatMul1 -->
<g id="edge2" class="edge">
<title>x
&#45;&#45;&#45;&#45;&#45;&#45;&#45;&#45;&#45;&#45;&#45;&#45;&#45;
tensor([[0.4275, 0.4451],
 &#160;&#160;&#160;&#160;&#160;&#160;&#160;[0.8319, 0.3550]])
&#45;&#45;&#45;&#45;&#45;&#45;&#45;&#45;&#45;&#45;&#45;&#45;&#45;
tensor([[0.0955, 0.1768],
 &#160;&#160;&#160;&#160;&#160;&#160;&#160;[0.0715, 0.1325]])&#45;&gt;MatMul1</title>
<path fill="none" stroke="black" d="M651.57,-497.71C648.68,-496.28 645.82,-494.88 643,-493.5 621.73,-483.09 597.65,-471.59 579.06,-462.78"/>
<polygon fill="black" stroke="black" points="580.71,-459.69 570.18,-458.57 577.72,-466.01 580.71,-459.69"/>
</g>
<!-- b
&#45;&#45;&#45;&#45;&#45;&#45;&#45;&#45;&#45;&#45;&#45;&#45;&#45;
tensor([[0.8046]])
&#45;&#45;&#45;&#45;&#45;&#45;&#45;&#45;&#45;&#45;&#45;&#45;&#45;
tensor([[0.2791]]) -->
<g id="node3" class="node">
<title>b
&#45;&#45;&#45;&#45;&#45;&#45;&#45;&#45;&#45;&#45;&#45;&#45;&#45;
tensor([[0.8046]])
&#45;&#45;&#45;&#45;&#45;&#45;&#45;&#45;&#45;&#45;&#45;&#45;&#45;
tensor([[0.2791]])</title>
<polygon fill="lightgrey" stroke="black" points="966,-578 842,-578 842,-506.25 966,-506.25 966,-578"/>
<text xml:space="preserve" text-anchor="middle" x="904" y="-564.5" font-family="monospace" font-size="10.00">b</text>
<text xml:space="preserve" text-anchor="middle" x="904" y="-551.75" font-family="monospace" font-size="10.00">&#45;&#45;&#45;&#45;&#45;&#45;&#45;&#45;&#45;&#45;&#45;&#45;&#45;</text>
<text xml:space="preserve" text-anchor="middle" x="904" y="-539" font-family="monospace" font-size="10.00">tensor([[0.8046]])</text>
<text xml:space="preserve" text-anchor="middle" x="904" y="-526.25" font-family="monospace" font-size="10.00">&#45;&#45;&#45;&#45;&#45;&#45;&#45;&#45;&#45;&#45;&#45;&#45;&#45;</text>
<text xml:space="preserve" text-anchor="middle" x="904" y="-513.5" font-family="monospace" font-size="10.00">tensor([[0.2791]])</text>
</g>
<!-- Add4 -->
<g id="node5" class="node">
<title>Add4</title>
<polygon fill="lightgrey" stroke="black" points="546,-293 492,-293 492,-272.25 546,-272.25 546,-293"/>
<text xml:space="preserve" text-anchor="middle" x="519" y="-279.5" font-family="monospace" font-size="10.00">Add4</text>
</g>
<!-- b
&#45;&#45;&#45;&#45;&#45;&#45;&#45;&#45;&#45;&#45;&#45;&#45;&#45;
tensor([[0.8046]])
&#45;&#45;&#45;&#45;&#45;&#45;&#45;&#45;&#45;&#45;&#45;&#45;&#45;
tensor([[0.2791]])&#45;&gt;Add4 -->
<g id="edge3" class="edge">
<title>b
&#45;&#45;&#45;&#45;&#45;&#45;&#45;&#45;&#45;&#45;&#45;&#45;&#45;
tensor([[0.8046]])
&#45;&#45;&#45;&#45;&#45;&#45;&#45;&#45;&#45;&#45;&#45;&#45;&#45;
tensor([[0.2791]])&#45;&gt;Add4</title>
<path fill="none" stroke="black" d="M861.05,-505.76C805.93,-461.32 706.37,-384.19 614,-329 594.46,-317.32 571.44,-306.27 552.96,-297.99"/>
<polygon fill="black" stroke="black" points="554.61,-294.9 544.05,-294.07 551.79,-301.3 554.61,-294.9"/>
</g>
<!-- Tensor7
&#45;&#45;&#45;&#45;&#45;&#45;&#45;&#45;&#45;&#45;&#45;&#45;&#45;
tensor([[1.0253, 0.6938]])
&#45;&#45;&#45;&#45;&#45;&#45;&#45;&#45;&#45;&#45;&#45;&#45;&#45;
None -->
<g id="node6" class="node">
<title>Tensor7
&#45;&#45;&#45;&#45;&#45;&#45;&#45;&#45;&#45;&#45;&#45;&#45;&#45;
tensor([[1.0253, 0.6938]])
&#45;&#45;&#45;&#45;&#45;&#45;&#45;&#45;&#45;&#45;&#45;&#45;&#45;
None</title>
<polygon fill="lightgrey" stroke="black" points="605,-400.75 433,-400.75 433,-329 605,-329 605,-400.75"/>
<text xml:space="preserve" text-anchor="middle" x="519" y="-387.25" font-family="monospace" font-size="10.00">Tensor7</text>
<text xml:space="preserve" text-anchor="middle" x="519" y="-374.5" font-family="monospace" font-size="10.00">&#45;&#45;&#45;&#45;&#45;&#45;&#45;&#45;&#45;&#45;&#45;&#45;&#45;</text>
<text xml:space="preserve" text-anchor="middle" x="519" y="-361.75" font-family="monospace" font-size="10.00">tensor([[1.0253, 0.6938]])</text>
<text xml:space="preserve" text-anchor="middle" x="519" y="-349" font-family="monospace" font-size="10.00">&#45;&#45;&#45;&#45;&#45;&#45;&#45;&#45;&#45;&#45;&#45;&#45;&#45;</text>
<text xml:space="preserve" text-anchor="middle" x="519" y="-336.25" font-family="monospace" font-size="10.00">None</text>
</g>
<!-- MatMul1&#45;&gt;Tensor7
&#45;&#45;&#45;&#45;&#45;&#45;&#45;&#45;&#45;&#45;&#45;&#45;&#45;
tensor([[1.0253, 0.6938]])
&#45;&#45;&#45;&#45;&#45;&#45;&#45;&#45;&#45;&#45;&#45;&#45;&#45;
None -->
<g id="edge4" class="edge">
<title>MatMul1&#45;&gt;Tensor7
&#45;&#45;&#45;&#45;&#45;&#45;&#45;&#45;&#45;&#45;&#45;&#45;&#45;
tensor([[1.0253, 0.6938]])
&#45;&#45;&#45;&#45;&#45;&#45;&#45;&#45;&#45;&#45;&#45;&#45;&#45;
None</title>
<path fill="none" stroke="black" d="M544.44,-436.28C542.11,-429.84 538.88,-420.9 535.5,-411.55"/>
<polygon fill="black" stroke="black" points="538.87,-410.57 532.18,-402.35 532.29,-412.95 538.87,-410.57"/>
</g>
<!-- Tensor8
&#45;&#45;&#45;&#45;&#45;&#45;&#45;&#45;&#45;&#45;&#45;&#45;&#45;
tensor([[1.8299, 1.4983]])
&#45;&#45;&#45;&#45;&#45;&#45;&#45;&#45;&#45;&#45;&#45;&#45;&#45;
None -->
<g id="node7" class="node">
<title>Tensor8
&#45;&#45;&#45;&#45;&#45;&#45;&#45;&#45;&#45;&#45;&#45;&#45;&#45;
tensor([[1.8299, 1.4983]])
&#45;&#45;&#45;&#45;&#45;&#45;&#45;&#45;&#45;&#45;&#45;&#45;&#45;
None</title>
<polygon fill="lightgrey" stroke="black" points="576,-236.25 404,-236.25 404,-164.5 576,-164.5 576,-236.25"/>
<text xml:space="preserve" text-anchor="middle" x="490" y="-222.75" font-family="monospace" font-size="10.00">Tensor8</text>
<text xml:space="preserve" text-anchor="middle" x="490" y="-210" font-family="monospace" font-size="10.00">&#45;&#45;&#45;&#45;&#45;&#45;&#45;&#45;&#45;&#45;&#45;&#45;&#45;</text>
<text xml:space="preserve" text-anchor="middle" x="490" y="-197.25" font-family="monospace" font-size="10.00">tensor([[1.8299, 1.4983]])</text>
<text xml:space="preserve" text-anchor="middle" x="490" y="-184.5" font-family="monospace" font-size="10.00">&#45;&#45;&#45;&#45;&#45;&#45;&#45;&#45;&#45;&#45;&#45;&#45;&#45;</text>
<text xml:space="preserve" text-anchor="middle" x="490" y="-171.75" font-family="monospace" font-size="10.00">None</text>
</g>
<!-- Add4&#45;&gt;Tensor8
&#45;&#45;&#45;&#45;&#45;&#45;&#45;&#45;&#45;&#45;&#45;&#45;&#45;
tensor([[1.8299, 1.4983]])
&#45;&#45;&#45;&#45;&#45;&#45;&#45;&#45;&#45;&#45;&#45;&#45;&#45;
None -->
<g id="edge5" class="edge">
<title>Add4&#45;&gt;Tensor8
&#45;&#45;&#45;&#45;&#45;&#45;&#45;&#45;&#45;&#45;&#45;&#45;&#45;
tensor([[1.8299, 1.4983]])
&#45;&#45;&#45;&#45;&#45;&#45;&#45;&#45;&#45;&#45;&#45;&#45;&#45;
None</title>
<path fill="none" stroke="black" d="M515.44,-271.78C513.11,-265.34 509.88,-256.4 506.5,-247.05"/>
<polygon fill="black" stroke="black" points="509.87,-246.07 503.18,-237.85 503.29,-248.45 509.87,-246.07"/>
</g>
<!-- Tensor7
&#45;&#45;&#45;&#45;&#45;&#45;&#45;&#45;&#45;&#45;&#45;&#45;&#45;
tensor([[1.0253, 0.6938]])
&#45;&#45;&#45;&#45;&#45;&#45;&#45;&#45;&#45;&#45;&#45;&#45;&#45;
None&#45;&gt;Add4 -->
<g id="edge9" class="edge">
<title>Tensor7
&#45;&#45;&#45;&#45;&#45;&#45;&#45;&#45;&#45;&#45;&#45;&#45;&#45;
tensor([[1.0253, 0.6938]])
&#45;&#45;&#45;&#45;&#45;&#45;&#45;&#45;&#45;&#45;&#45;&#45;&#45;
None&#45;&gt;Add4</title>
<path fill="none" stroke="black" d="M519,-328.91C519,-320.68 519,-312.15 519,-304.75"/>
<polygon fill="black" stroke="black" points="522.5,-304.78 519,-294.78 515.5,-304.78 522.5,-304.78"/>
</g>
<!-- MatMulBackward1 -->
<g id="node10" class="node">
<title>MatMulBackward1</title>
<polygon fill="lightgrey" stroke="black" points="429,-457.5 323,-457.5 323,-436.75 429,-436.75 429,-457.5"/>
<text xml:space="preserve" text-anchor="middle" x="376" y="-444" font-family="monospace" font-size="10.00">MatMulBackward1</text>
</g>
<!-- Tensor7
&#45;&#45;&#45;&#45;&#45;&#45;&#45;&#45;&#45;&#45;&#45;&#45;&#45;
tensor([[1.0253, 0.6938]])
&#45;&#45;&#45;&#45;&#45;&#45;&#45;&#45;&#45;&#45;&#45;&#45;&#45;
None&#45;&gt;MatMulBackward1 -->
<g id="edge8" class="edge">
<title>Tensor7
&#45;&#45;&#45;&#45;&#45;&#45;&#45;&#45;&#45;&#45;&#45;&#45;&#45;
tensor([[1.0253, 0.6938]])
&#45;&#45;&#45;&#45;&#45;&#45;&#45;&#45;&#45;&#45;&#45;&#45;&#45;
None&#45;&gt;MatMulBackward1</title>
<path fill="none" stroke="black" d="M456.21,-401.11C437.63,-411.54 418.26,-422.41 403.2,-430.86"/>
<polygon fill="black" stroke="black" points="401.86,-427.6 394.85,-435.54 405.29,-433.7 401.86,-427.6"/>
</g>
<!-- AddBackward4 -->
<g id="node8" class="node">
<title>AddBackward4</title>
<polygon fill="lightgrey" stroke="black" points="420,-293 332,-293 332,-272.25 420,-272.25 420,-293"/>
<text xml:space="preserve" text-anchor="middle" x="376" y="-279.5" font-family="monospace" font-size="10.00">AddBackward4</text>
</g>
<!-- Tensor8
&#45;&#45;&#45;&#45;&#45;&#45;&#45;&#45;&#45;&#45;&#45;&#45;&#45;
tensor([[1.8299, 1.4983]])
&#45;&#45;&#45;&#45;&#45;&#45;&#45;&#45;&#45;&#45;&#45;&#45;&#45;
None&#45;&gt;AddBackward4 -->
<g id="edge6" class="edge">
<title>Tensor8
&#45;&#45;&#45;&#45;&#45;&#45;&#45;&#45;&#45;&#45;&#45;&#45;&#45;
tensor([[1.8299, 1.4983]])
&#45;&#45;&#45;&#45;&#45;&#45;&#45;&#45;&#45;&#45;&#45;&#45;&#45;
None&#45;&gt;AddBackward4</title>
<path fill="none" stroke="black" d="M439.95,-236.61C425.7,-246.64 410.87,-257.08 399.09,-265.37"/>
<polygon fill="black" stroke="black" points="397.38,-262.3 391.22,-270.91 401.41,-268.02 397.38,-262.3"/>
</g>
<!-- Tanh1 -->
<g id="node9" class="node">
<title>Tanh1</title>
<polygon fill="lightgrey" stroke="black" points="511,-128.5 457,-128.5 457,-107.75 511,-107.75 511,-128.5"/>
<text xml:space="preserve" text-anchor="middle" x="484" y="-115" font-family="monospace" font-size="10.00">Tanh1</text>
</g>
<!-- Tensor8
&#45;&#45;&#45;&#45;&#45;&#45;&#45;&#45;&#45;&#45;&#45;&#45;&#45;
tensor([[1.8299, 1.4983]])
&#45;&#45;&#45;&#45;&#45;&#45;&#45;&#45;&#45;&#45;&#45;&#45;&#45;
None&#45;&gt;Tanh1 -->
<g id="edge7" class="edge">
<title>Tensor8
&#45;&#45;&#45;&#45;&#45;&#45;&#45;&#45;&#45;&#45;&#45;&#45;&#45;
tensor([[1.8299, 1.4983]])
&#45;&#45;&#45;&#45;&#45;&#45;&#45;&#45;&#45;&#45;&#45;&#45;&#45;
None&#45;&gt;Tanh1</title>
<path fill="none" stroke="black" d="M487.39,-164.41C486.77,-156.18 486.13,-147.65 485.58,-140.25"/>
<polygon fill="black" stroke="black" points="489.07,-139.99 484.83,-130.28 482.09,-140.51 489.07,-139.99"/>
</g>
<!-- AddBackward4&#45;&gt;MatMulBackward1 -->
<g id="edge10" class="edge">
<title>AddBackward4&#45;&gt;MatMulBackward1</title>
<path fill="none" stroke="black" d="M376,-293.46C376,-319.32 376,-389.66 376,-425.11"/>
<polygon fill="black" stroke="black" points="372.5,-424.93 376,-434.93 379.5,-424.93 372.5,-424.93"/>
</g>
<!-- GradientAccumulator7 -->
<g id="node11" class="node">
<title>GradientAccumulator7</title>
<polygon fill="lightgrey" stroke="black" points="136,-552.5 0,-552.5 0,-531.75 136,-531.75 136,-552.5"/>
<text xml:space="preserve" text-anchor="middle" x="68" y="-539" font-family="monospace" font-size="10.00">GradientAccumulator7</text>
</g>
<!-- AddBackward4&#45;&gt;GradientAccumulator7 -->
<g id="edge11" class="edge">
<title>AddBackward4&#45;&gt;GradientAccumulator7</title>
<path fill="none" stroke="black" d="M364.29,-293.41C318.05,-332.07 147.82,-474.39 88.53,-523.96"/>
<polygon fill="black" stroke="black" points="86.29,-521.28 80.86,-530.37 90.78,-526.65 86.29,-521.28"/>
</g>
<!-- Tensor9
&#45;&#45;&#45;&#45;&#45;&#45;&#45;&#45;&#45;&#45;&#45;&#45;&#45;
tensor([[0.9498, 0.9048]])
&#45;&#45;&#45;&#45;&#45;&#45;&#45;&#45;&#45;&#45;&#45;&#45;&#45;
tensor([[1., 1.]]) -->
<g id="node14" class="node">
<title>Tensor9
&#45;&#45;&#45;&#45;&#45;&#45;&#45;&#45;&#45;&#45;&#45;&#45;&#45;
tensor([[0.9498, 0.9048]])
&#45;&#45;&#45;&#45;&#45;&#45;&#45;&#45;&#45;&#45;&#45;&#45;&#45;
tensor([[1., 1.]])</title>
<polygon fill="lightgrey" stroke="black" points="519,-71.75 347,-71.75 347,0 519,0 519,-71.75"/>
<text xml:space="preserve" text-anchor="middle" x="433" y="-58.25" font-family="monospace" font-size="10.00">Tensor9</text>
<text xml:space="preserve" text-anchor="middle" x="433" y="-45.5" font-family="monospace" font-size="10.00">&#45;&#45;&#45;&#45;&#45;&#45;&#45;&#45;&#45;&#45;&#45;&#45;&#45;</text>
<text xml:space="preserve" text-anchor="middle" x="433" y="-32.75" font-family="monospace" font-size="10.00">tensor([[0.9498, 0.9048]])</text>
<text xml:space="preserve" text-anchor="middle" x="433" y="-20" font-family="monospace" font-size="10.00">&#45;&#45;&#45;&#45;&#45;&#45;&#45;&#45;&#45;&#45;&#45;&#45;&#45;</text>
<text xml:space="preserve" text-anchor="middle" x="433" y="-7.25" font-family="monospace" font-size="10.00">tensor([[1., 1.]])</text>
</g>
<!-- Tanh1&#45;&gt;Tensor9
&#45;&#45;&#45;&#45;&#45;&#45;&#45;&#45;&#45;&#45;&#45;&#45;&#45;
tensor([[0.9498, 0.9048]])
&#45;&#45;&#45;&#45;&#45;&#45;&#45;&#45;&#45;&#45;&#45;&#45;&#45;
tensor([[1., 1.]]) -->
<g id="edge14" class="edge">
<title>Tanh1&#45;&gt;Tensor9
&#45;&#45;&#45;&#45;&#45;&#45;&#45;&#45;&#45;&#45;&#45;&#45;&#45;
tensor([[0.9498, 0.9048]])
&#45;&#45;&#45;&#45;&#45;&#45;&#45;&#45;&#45;&#45;&#45;&#45;&#45;
tensor([[1., 1.]])</title>
<path fill="none" stroke="black" d="M477.75,-107.28C473.52,-100.63 467.6,-91.32 461.45,-81.64"/>
<polygon fill="black" stroke="black" points="464.41,-79.77 456.09,-73.21 458.5,-83.52 464.41,-79.77"/>
</g>
<!-- GradientAccumulator5 -->
<g id="node12" class="node">
<title>GradientAccumulator5</title>
<polygon fill="lightgrey" stroke="black" points="290,-552.5 154,-552.5 154,-531.75 290,-531.75 290,-552.5"/>
<text xml:space="preserve" text-anchor="middle" x="222" y="-539" font-family="monospace" font-size="10.00">GradientAccumulator5</text>
</g>
<!-- MatMulBackward1&#45;&gt;GradientAccumulator5 -->
<g id="edge12" class="edge">
<title>MatMulBackward1&#45;&gt;GradientAccumulator5</title>
<path fill="none" stroke="black" d="M359.12,-457.94C343.47,-467.06 319.59,-481.07 299,-493.5 281.62,-504 262.17,-516.03 247.17,-525.37"/>
<polygon fill="black" stroke="black" points="245.49,-522.29 238.86,-530.56 249.19,-528.23 245.49,-522.29"/>
</g>
<!-- GradientAccumulator6 -->
<g id="node13" class="node">
<title>GradientAccumulator6</title>
<polygon fill="lightgrey" stroke="black" points="444,-552.5 308,-552.5 308,-531.75 444,-531.75 444,-552.5"/>
<text xml:space="preserve" text-anchor="middle" x="376" y="-539" font-family="monospace" font-size="10.00">GradientAccumulator6</text>
</g>
<!-- MatMulBackward1&#45;&gt;GradientAccumulator6 -->
<g id="edge13" class="edge">
<title>MatMulBackward1&#45;&gt;GradientAccumulator6</title>
<path fill="none" stroke="black" d="M376,-457.81C376,-472.49 376,-500.69 376,-520.2"/>
<polygon fill="black" stroke="black" points="372.5,-520.01 376,-530.01 379.5,-520.01 372.5,-520.01"/>
</g>
<!-- GradientAccumulator7&#45;&gt;b
&#45;&#45;&#45;&#45;&#45;&#45;&#45;&#45;&#45;&#45;&#45;&#45;&#45;
tensor([[0.8046]])
&#45;&#45;&#45;&#45;&#45;&#45;&#45;&#45;&#45;&#45;&#45;&#45;&#45;
tensor([[0.2791]]) -->
<g id="edge18" class="edge">
<title>GradientAccumulator7&#45;&gt;b
&#45;&#45;&#45;&#45;&#45;&#45;&#45;&#45;&#45;&#45;&#45;&#45;&#45;
tensor([[0.8046]])
&#45;&#45;&#45;&#45;&#45;&#45;&#45;&#45;&#45;&#45;&#45;&#45;&#45;
tensor([[0.2791]])</title>
<path fill="none" stroke="black" d="M77.25,-552.82C91.73,-568.64 121.48,-597.63 154,-608.75 189.22,-620.8 789,-621.42 824,-608.75 837.95,-603.7 851.18,-595.04 862.71,-585.61"/>
<polygon fill="black" stroke="black" points="864.76,-588.46 870.04,-579.27 860.19,-583.16 864.76,-588.46"/>
</g>
<!-- GradientAccumulator5&#45;&gt;w
&#45;&#45;&#45;&#45;&#45;&#45;&#45;&#45;&#45;&#45;&#45;&#45;&#45;
tensor([[0.9755, 0.7312]])
&#45;&#45;&#45;&#45;&#45;&#45;&#45;&#45;&#45;&#45;&#45;&#45;&#45;
tensor([[0.1225, 0.1458]]) -->
<g id="edge15" class="edge">
<title>GradientAccumulator5&#45;&gt;w
&#45;&#45;&#45;&#45;&#45;&#45;&#45;&#45;&#45;&#45;&#45;&#45;&#45;
tensor([[0.9755, 0.7312]])
&#45;&#45;&#45;&#45;&#45;&#45;&#45;&#45;&#45;&#45;&#45;&#45;&#45;
tensor([[0.1225, 0.1458]])</title>
<path fill="none" stroke="black" d="M231.25,-552.82C245.73,-568.64 275.48,-597.63 308,-608.75 365.19,-628.31 385.99,-625.74 444,-608.75 461.55,-603.61 478.95,-594.5 494.36,-584.63"/>
<polygon fill="black" stroke="black" points="496.03,-587.72 502.41,-579.26 492.15,-581.9 496.03,-587.72"/>
</g>
<!-- GradientAccumulator6&#45;&gt;x
&#45;&#45;&#45;&#45;&#45;&#45;&#45;&#45;&#45;&#45;&#45;&#45;&#45;
tensor([[0.4275, 0.4451],
 &#160;&#160;&#160;&#160;&#160;&#160;&#160;[0.8319, 0.3550]])
&#45;&#45;&#45;&#45;&#45;&#45;&#45;&#45;&#45;&#45;&#45;&#45;&#45;
tensor([[0.0955, 0.1768],
 &#160;&#160;&#160;&#160;&#160;&#160;&#160;[0.0715, 0.1325]]) -->
<g id="edge17" class="edge">
<title>GradientAccumulator6&#45;&gt;x
&#45;&#45;&#45;&#45;&#45;&#45;&#45;&#45;&#45;&#45;&#45;&#45;&#45;
tensor([[0.4275, 0.4451],
 &#160;&#160;&#160;&#160;&#160;&#160;&#160;[0.8319, 0.3550]])
&#45;&#45;&#45;&#45;&#45;&#45;&#45;&#45;&#45;&#45;&#45;&#45;&#45;
tensor([[0.0955, 0.1768],
 &#160;&#160;&#160;&#160;&#160;&#160;&#160;[0.0715, 0.1325]])</title>
<path fill="none" stroke="black" d="M385.25,-552.82C399.73,-568.64 429.48,-597.63 462,-608.75 534.33,-633.49 560.64,-630.23 634,-608.75 644.08,-605.8 654.11,-601.54 663.74,-596.57"/>
<polygon fill="black" stroke="black" points="665.19,-599.77 672.29,-591.9 661.84,-593.63 665.19,-599.77"/>
</g>
<!-- TanhBackward1 -->
<g id="node15" class="node">
<title>TanhBackward1</title>
<polygon fill="lightgrey" stroke="black" points="434,-128.5 340,-128.5 340,-107.75 434,-107.75 434,-128.5"/>
<text xml:space="preserve" text-anchor="middle" x="387" y="-115" font-family="monospace" font-size="10.00">TanhBackward1</text>
</g>
<!-- Tensor9
&#45;&#45;&#45;&#45;&#45;&#45;&#45;&#45;&#45;&#45;&#45;&#45;&#45;
tensor([[0.9498, 0.9048]])
&#45;&#45;&#45;&#45;&#45;&#45;&#45;&#45;&#45;&#45;&#45;&#45;&#45;
tensor([[1., 1.]])&#45;&gt;TanhBackward1 -->
<g id="edge16" class="edge">
<title>Tensor9
&#45;&#45;&#45;&#45;&#45;&#45;&#45;&#45;&#45;&#45;&#45;&#45;&#45;
tensor([[0.9498, 0.9048]])
&#45;&#45;&#45;&#45;&#45;&#45;&#45;&#45;&#45;&#45;&#45;&#45;&#45;
tensor([[1., 1.]])&#45;&gt;TanhBackward1</title>
<path fill="none" stroke="black" d="M412.91,-71.93C407.89,-80.69 402.68,-89.77 398.26,-97.48"/>
<polygon fill="black" stroke="black" points="395.33,-95.56 393.39,-105.97 401.4,-99.04 395.33,-95.56"/>
</g>
<!-- TanhBackward1&#45;&gt;AddBackward4 -->
<g id="edge19" class="edge">
<title>TanhBackward1&#45;&gt;AddBackward4</title>
<path fill="none" stroke="black" d="M386.33,-128.96C384.58,-154.82 379.82,-225.16 377.42,-260.61"/>
<polygon fill="black" stroke="black" points="373.94,-260.22 376.76,-270.44 380.92,-260.7 373.94,-260.22"/>
</g>
</g>
</svg>
